HIERARCHY
ROOT hip
{
  OFFSET -0.322492 90.3521 0.23896
  CHANNELS 6 Xposition Yposition Zposition Zrotation Xrotation Yrotation
  JOINT abdomen
  {
    OFFSET 0 7.2397 0
    CHANNELS 6 Xposition Yposition Zposition Zrotation Xrotation Yrotation
    JOINT chest
    {
      OFFSET 0 16.546 0
      CHANNELS 6 Xposition Yposition Zposition Zrotation Xrotation Yrotation
      JOINT neck
      {
        OFFSET 0 34.2149 0
        CHANNELS 6 Xposition Yposition Zposition Zrotation Xrotation Yrotation
        JOINT head
        {
          OFFSET 0 6.2923 0
          CHANNELS 6 Xposition Yposition Zposition Zrotation Xrotation Yrotation
          End Site
          {
            OFFSET 0 21.2161 0
          }
        }
      }
      JOINT lCollar
      {
        OFFSET 4.0639 26.6115 -1.1234
        CHANNELS 6 Xposition Yposition Zposition Zrotation Xrotation Yrotation
        JOINT lShldr
        {
          OFFSET 14.1772 0 0
          CHANNELS 6 Xposition Yposition Zposition Zrotation Xrotation Yrotation
          JOINT lForeArm
          {
            OFFSET 26.1234 0 0
            CHANNELS 6 Xposition Yposition Zposition Zrotation Xrotation Yrotation
            JOINT lHand
            {
              OFFSET 27.7188 0 0
              CHANNELS 6 Xposition Yposition Zposition Zrotation Xrotation Yrotation
              JOINT lThumb1
              {
                OFFSET 2.2979 -0.4685 1.8313
                CHANNELS 6 Xposition Yposition Zposition Zrotation Xrotation Yrotation
                JOINT lThumb2
                {
                  OFFSET 5.2953 0 0
                  CHANNELS 6 Xposition Yposition Zposition Zrotation Xrotation Yrotation
                  JOINT lThumb3
                  {
                    OFFSET 3.0181 0 0
                    CHANNELS 6 Xposition Yposition Zposition Zrotation Xrotation Yrotation
                    End Site
                    {
                      OFFSET 2.6294 0 0
                    }
                  }
                }
              }
              JOINT lIndex1
              {
                OFFSET 9.3793 0.2991 2.5924
                CHANNELS 6 Xposition Yposition Zposition Zrotation Xrotation Yrotation
                JOINT lIndex2
                {
                  OFFSET 4.3461 0 0
                  CHANNELS 6 Xposition Yposition Zposition Zrotation Xrotation Yrotation
                  JOINT lIndex3
                  {
                    OFFSET 2.1666 0 0
                    CHANNELS 6 Xposition Yposition Zposition Zrotation Xrotation Yrotation
                    End Site
                    {
                      OFFSET 2.2048 0 0
                    }
                  }
                }
              }
              JOINT lMid1
              {
                OFFSET 9.4769 0.8376 0.2947
                CHANNELS 6 Xposition Yposition Zposition Zrotation Xrotation Yrotation
                JOINT lMid2
                {
                  OFFSET 4.772 0 0
                  CHANNELS 6 Xposition Yposition Zposition Zrotation Xrotation Yrotation
                  JOINT lMid3
                  {
                    OFFSET 2.8722 0 0
                    CHANNELS 6 Xposition Yposition Zposition Zrotation Xrotation Yrotation
                    End Site
                    {
                      OFFSET 2.0959 0 0
                    }
                  }
                }
              }
              JOINT lRing1
              {
                OFFSET 8.6586 1.0176 -1.7016
                CHANNELS 6 Xposition Yposition Zposition Zrotation Xrotation Yrotation
                JOINT lRing2
                {
                  OFFSET 4.5461 0 0
                  CHANNELS 6 Xposition Yposition Zposition Zrotation Xrotation Yrotation
                  JOINT lRing3
                  {
                    OFFSET 2.506 0 0
                    CHANNELS 6 Xposition Yposition Zposition Zrotation Xrotation Yrotation
                    End Site
                    {
                      OFFSET 2.2023 0 0
                    }
                  }
                }
              }
              JOINT lPinky1
              {
                OFFSET 7.6901 0.6618 -3.9096
                CHANNELS 6 Xposition Yposition Zposition Zrotation Xrotation Yrotation
                JOINT lPinky2
                {
                  OFFSET 3.2119 0 0
                  CHANNELS 6 Xposition Yposition Zposition Zrotation Xrotation Yrotation
                  JOINT lPinky3
                  {
                    OFFSET 1.924 0 0
                    CHANNELS 6 Xposition Yposition Zposition Zrotation Xrotation Yrotation
                    End Site
                    {
                      OFFSET 1.7829 0 0
                    }
                  }
                }
              }
            }
          }
        }
      }
      JOINT rCollar
      {
        OFFSET -4.0677 26.6109 -1.1234
        CHANNELS 6 Xposition Yposition Zposition Zrotation Xrotation Yrotation
        JOINT rShldr
        {
          OFFSET -14.1772 0 0
          CHANNELS 6 Xposition Yposition Zposition Zrotation Xrotation Yrotation
          JOINT rForeArm
          {
            OFFSET -26.1234 0 0
            CHANNELS 6 Xposition Yposition Zposition Zrotation Xrotation Yrotation
            JOINT rHand
            {
              OFFSET -27.7188 0 0
              CHANNELS 6 Xposition Yposition Zposition Zrotation Xrotation Yrotation
              JOINT rThumb1
              {
                OFFSET -2.2979 -0.4684 1.8313
                CHANNELS 6 Xposition Yposition Zposition Zrotation Xrotation Yrotation
                JOINT rThumb2
                {
                  OFFSET -5.2953 0 0
                  CHANNELS 6 Xposition Yposition Zposition Zrotation Xrotation Yrotation
                  JOINT rThumb3
                  {
                    OFFSET -3.0181 0 0
                    CHANNELS 6 Xposition Yposition Zposition Zrotation Xrotation Yrotation
                    End Site
                    {
                      OFFSET -2.6294 0 0
                    }
                  }
                }
              }
              JOINT rIndex1
              {
                OFFSET -9.3793 0.2991 2.5924
                CHANNELS 6 Xposition Yposition Zposition Zrotation Xrotation Yrotation
                JOINT rIndex2
                {
                  OFFSET -4.3461 0 0
                  CHANNELS 6 Xposition Yposition Zposition Zrotation Xrotation Yrotation
                  JOINT rIndex3
                  {
                    OFFSET -2.1666 0 0
                    CHANNELS 6 Xposition Yposition Zposition Zrotation Xrotation Yrotation
                    End Site
                    {
                      OFFSET -2.2048 0 0
                    }
                  }
                }
              }
              JOINT rMid1
              {
                OFFSET -9.4769 0.8376 0.2947
                CHANNELS 6 Xposition Yposition Zposition Zrotation Xrotation Yrotation
                JOINT rMid2
                {
                  OFFSET -4.772 0 0
                  CHANNELS 6 Xposition Yposition Zposition Zrotation Xrotation Yrotation
                  JOINT rMid3
                  {
                    OFFSET -2.8722 0 0
                    CHANNELS 6 Xposition Yposition Zposition Zrotation Xrotation Yrotation
                    End Site
                    {
                      OFFSET -2.0959 0 0
                    }
                  }
                }
              }
              JOINT rRing1
              {
                OFFSET -8.6586 1.0176 -1.7016
                CHANNELS 6 Xposition Yposition Zposition Zrotation Xrotation Yrotation
                JOINT rRing2
                {
                  OFFSET -4.5461 0 0
                  CHANNELS 6 Xposition Yposition Zposition Zrotation Xrotation Yrotation
                  JOINT rRing3
                  {
                    OFFSET -2.506 0 0
                    CHANNELS 6 Xposition Yposition Zposition Zrotation Xrotation Yrotation
                    End Site
                    {
                      OFFSET -2.2023 0 0
                    }
                  }
                }
              }
              JOINT rPinky1
              {
                OFFSET -7.6901 0.6618 -3.9096
                CHANNELS 6 Xposition Yposition Zposition Zrotation Xrotation Yrotation
                JOINT rPinky2
                {
                  OFFSET -3.2119 0 0
                  CHANNELS 6 Xposition Yposition Zposition Zrotation Xrotation Yrotation
                  JOINT rPinky3
                  {
                    OFFSET -1.924 0 0
                    CHANNELS 6 Xposition Yposition Zposition Zrotation Xrotation Yrotation
                    End Site
                    {
                      OFFSET -1.7829 0 0
                    }
                  }
                }
              }
            }
          }
        }
      }
    }
  }
  JOINT lThigh
  {
    OFFSET 8.7379 -0.0029 0.0005
    CHANNELS 6 Xposition Yposition Zposition Zrotation Xrotation Yrotation
    JOINT lShin
    {
      OFFSET 0 -46.6676 0
      CHANNELS 6 Xposition Yposition Zposition Zrotation Xrotation Yrotation
      JOINT lFoot
      {
        OFFSET 0 -40.1476 0
        CHANNELS 6 Xposition Yposition Zposition Zrotation Xrotation Yrotation
        JOINT lToes
        {
          OFFSET 0 -8.8846 14.2294
          CHANNELS 6 Xposition Yposition Zposition Zrotation Xrotation Yrotation
          End Site
          {
            OFFSET 0 0 6.296
          }
        }
      }
    }
  }
  JOINT rThigh
  {
    OFFSET -8.7379 0.0029 -0.0005
    CHANNELS 6 Xposition Yposition Zposition Zrotation Xrotation Yrotation
    JOINT rShin
    {
      OFFSET 0 -46.6676 0
      CHANNELS 6 Xposition Yposition Zposition Zrotation Xrotation Yrotation
      JOINT rFoot
      {
        OFFSET 0 -40.1476 0
        CHANNELS 6 Xposition Yposition Zposition Zrotation Xrotation Yrotation
        JOINT rToes
        {
          OFFSET 0 -8.8846 14.2294
          CHANNELS 6 Xposition Yposition Zposition Zrotation Xrotation Yrotation
          End Site
          {
            OFFSET 0 0 6.296
          }
        }
      }
    }
  }
}
MOTION
Frames:	4
Frame Time:	0.0333333
-0.00745479 89.6338 -0.0170171 -5.4905 -6.41754 -55.3099 -4.44089e-16 7.2397 1.77636e-15 -0.0411494 5.24475 1.29821 4.44089e-16 16.546 4.44089e-16 0.721352 12.3561 2.37197 8.88178e-16 34.2149 0 -3.40874 33.0534 6.88328 0 6.2923 0 -8.68321 -26.2596 31.6502 4.0639 26.6115 -1.1234 -1.90261 4.0804 -21.4867 14.1772 -2.84217e-14 0 -67.8209 -14.3256 -14.2752 26.1234 0 -1.77636e-15 -103.666 -2.6332 -90.1116 27.7188 -1.42109e-14 0 -11.0313 -29.8689 -11.4932 2.2979 -0.4685 1.8313 37.184 70.9488 -65.3921 5.2953 -7.10543e-15 -7.10543e-15 -13.655 2.43915 4.2313 3.0181 0 0 40.575 -4.26209 10.4488 9.3793 0.2991 2.5924 -15.7189 8.2617 2.10857 4.3461 0 7.10543e-15 -27.9756 -1.11868 5.59658 2.1666 -7.10543e-15 0 -30.2284 -1.57777 5.42758 9.4769 0.8376 0.2947 -15.5574 6.19104 1.80127 4.772 1.42109e-14 1.42109e-14 -44.2331 -4.15798 10.4286 2.8722 0 0 -38.4625 -3.11875 10.6456 8.6586 1.0176 -1.7016 -12.8095 4.05758 0.0154728 4.5461 1.42109e-14 -3.55271e-15 -68.2419 -4.98724 7.35473 2.506 0 7.10543e-15 -26.184 0.226356 12.1003 7.6901 0.6618 -3.9096 -1.6959 -16.7036 -0.578543 3.2119 0 -1.42109e-14 -48.2121 -6.75383 15.0249 1.924 -2.66454e-15 -1.42109e-14 -25.7169 -1.9246 10.2066 -4.0677 26.6109 -1.1234 -4.44919 5.22421 14.4866 -14.1772 2.84217e-14 0 49.719 33.9095 21.1067 -26.1234 0 7.10543e-15 28.939 -9.96947 99.8603 -27.7188 3.55271e-15 1.42109e-14 19.2156 -5.2164 20.7017 -2.2979 -0.4684 1.8313 -92.2023 72.3373 115.748 -5.2953 0 0 20.8059 -0.164349 -7.80923 -3.0181 1.42109e-14 -7.10543e-15 7.44353 -1.87409 -23.1505 -9.3793 0.2991 2.5924 -0.483219 -1.4043 -4.46204 -4.3461 5.32907e-15 -1.42109e-14 11.3885 0.0663604 -2.10807 -2.1666 0 0 35.2115 -1.89994 -5.61246 -9.4769 0.8376 0.2947 -5.74451 -0.492507 -10.345 -4.772 -4.44089e-16 0 99.6663 -15.9162 -13.533 -2.8722 7.10543e-15 0 64.977 -7.76867 -13.6635 -8.6586 1.0176 -1.7016 4.03539 -11.2401 -9.54019 -4.5461 -5.32907e-15 1.42109e-14 113.305 -9.33456 -6.15032 -2.506 0 -1.42109e-14 71.4335 -4.52061 -7.13531 -7.6901 0.6618 -3.9096 -3.28621 -26.7809 -8.5992 -3.2119 -7.10543e-15 0 88.1866 -18.3453 -18.9248 -1.924 0 0 68.3113 -11.8989 -18.9734 8.7379 -0.0029 0.0005 16.5268 -16.9823 26.742 0 -46.6676 -7.10543e-15 2.9556 35.5705 13.9324 -3.55271e-15 -40.1476 -3.55271e-15 -8.41221 -2.42151 7.77683 -8.88178e-16 -8.8846 14.2294 0.0001 -1.2424e-17 -1.59028e-15 -8.7379 0.0029 -0.0005 -21.3888 -11.3274 -32.8185 0 -46.6676 7.10543e-15 -11.0199 44.429 1.54533 0 -40.1476 0 11.5923 -17.3077 -2.88388 0 -8.8846 14.2294 7.95139e-16 -1.98785e-16 -0 
-4.21613e-05 89.621 -0.0230016 -5.51441 -6.43405 -55.3117 0 7.2397 0 -0.047947 5.31646 1.33407 4.44089e-16 16.546 -4.44089e-16 0.705389 12.4997 2.44463 1.77636e-15 34.2149 -3.55271e-15 -3.44189 33.0256 6.88677 0 6.2923 0 -8.73758 -26.3983 31.5201 4.0639 26.6115 -1.1234 -2.09071 4.17919 -21.4977 14.1772 0 7.10543e-15 -67.7025 -14.3888 -14.5295 26.1234 -7.10543e-15 0 -103.507 -2.60442 -90.0948 27.7188 -1.42109e-14 -7.10543e-15 -10.9127 -29.9239 -11.3993 2.2979 -0.4685 1.8313 37.184 70.9488 -65.3921 5.2953 -1.42109e-14 0 -13.655 2.43915 4.2313 3.0181 0 0 40.575 -4.26209 10.4488 9.3793 0.2991 2.5924 -15.7189 8.2617 2.10857 4.3461 1.42109e-14 7.10543e-15 -27.9756 -1.11868 5.59658 2.1666 0 0 -30.2284 -1.57777 5.42758 9.4769 0.8376 0.2947 -15.5574 6.19104 1.80127 4.772 -1.42109e-14 0 -44.2331 -4.15798 10.4286 2.8722 0 7.10543e-15 -38.4625 -3.11875 10.6456 8.6586 1.0176 -1.7016 -12.8095 4.05758 0.0154728 4.5461 0 3.55271e-15 -68.2419 -4.98724 7.35473 2.506 0 0 -26.184 0.226356 12.1003 7.6901 0.6618 -3.9096 -1.6959 -16.7036 -0.578543 3.2119 1.42109e-14 -7.10543e-15 -48.2121 -6.75383 15.0249 1.924 6.66134e-15 0 -25.7169 -1.9246 10.2066 -4.0677 26.6109 -1.1234 -4.47132 5.38325 14.3492 -14.1772 2.84217e-14 7.10543e-15 49.8187 33.6783 21.2326 -26.1234 7.10543e-15 0 29.0001 -9.95087 99.8756 -27.7188 0 0 19.354 -4.96562 20.6202 -2.2979 -0.4684 1.8313 -92.2023 72.3373 115.748 -5.2953 -1.42109e-14 0 20.8059 -0.164349 -7.80923 -3.0181 -1.42109e-14 0 7.44353 -1.87409 -23.1505 -9.3793 0.2991 2.5924 -0.483219 -1.4043 -4.46204 -4.3461 2.66454e-15 -1.42109e-14 11.3885 0.0663604 -2.10807 -2.1666 3.55271e-15 0 35.2115 -1.89994 -5.61246 -9.4769 0.8376 0.2947 -5.74451 -0.492507 -10.345 -4.772 0 0 99.6663 -15.9162 -13.533 -2.8722 0 0 64.977 -7.76867 -13.6635 -8.6586 1.0176 -1.7016 4.03539 -11.2401 -9.54019 -4.5461 1.77636e-15 -1.42109e-14 113.305 -9.33456 -6.15032 -2.506 0 0 71.4335 -4.52061 -7.13531 -7.6901 0.6618 -3.9096 -3.28621 -26.7809 -8.5992 -3.2119 7.10543e-15 -1.42109e-14 88.1866 -18.3453 -18.9248 -1.924 0 0 68.3113 -11.8989 -18.9734 8.7379 -0.0029 0.0005 16.5347 -16.9815 26.7422 3.55271e-15 -46.6676 7.10543e-15 2.96435 35.614 13.9213 0 -40.1476 3.55271e-15 -8.41616 -2.43653 7.7757 -8.88178e-16 -8.8846 14.2294 0.0001 0 7.95139e-16 -8.7379 0.0029 -0.0005 -21.3968 -11.3248 -32.8161 0 -46.6676 7.10543e-15 -11.038 44.4702 1.56345 -3.55271e-15 -40.1476 0 11.5944 -17.3246 -2.88198 -3.55271e-15 -8.8846 14.2294 -7.95139e-16 -9.93923e-17 -0 
0.00546524 89.6114 -0.0274833 -5.5324 -6.44625 -55.3132 -4.44089e-16 7.2397 0 -0.0541885 5.3788 1.36736 8.88178e-16 16.546 0 0.690681 12.6245 2.51217 8.88178e-16 34.2149 0 -3.47986 33.006 6.89205 1.77636e-15 6.2923 -1.42109e-14 -8.76101 -26.5508 31.4139 4.0639 26.6115 -1.1234 -2.26846 4.2736 -21.4984 14.1772 0 -7.10543e-15 -67.5964 -14.4384 -14.7677 26.1234 0 1.77636e-15 -103.341 -2.59077 -90.082 27.7188 0 7.10543e-15 -10.8119 -29.9898 -11.3098 2.2979 -0.4685 1.8313 37.184 70.9488 -65.3921 5.2953 1.42109e-14 -7.10543e-15 -13.655 2.43915 4.2313 3.0181 0 0 40.575 -4.26209 10.4488 9.3793 0.2991 2.5924 -15.7189 8.2617 2.10857 4.3461 0 -7.10543e-15 -27.9756 -1.11868 5.59658 2.1666 -7.10543e-15 0 -30.2284 -1.57777 5.42758 9.4769 0.8376 0.2947 -15.5574 6.19104 1.80127 4.772 0 0 -44.2331 -4.15798 10.4286 2.8722 7.10543e-15 0 -38.4625 -3.11875 10.6456 8.6586 1.0176 -1.7016 -12.8095 4.05758 0.0154728 4.5461 -1.42109e-14 0 -68.2419 -4.98724 7.35473 2.506 -7.10543e-15 0 -26.184 0.226356 12.1003 7.6901 0.6618 -3.9096 -1.6959 -16.7036 -0.578543 3.2119 0 7.10543e-15 -48.2121 -6.75383 15.0249 1.924 -3.9968e-15 -7.10543e-15 -25.7169 -1.9246 10.2066 -4.0677 26.6109 -1.1234 -4.49154 5.54194 14.1542 -14.1772 0 -7.10543e-15 49.8826 33.5023 21.4328 -26.1234 7.10543e-15 0 28.9873 -9.96815 99.8376 -27.7188 -3.55271e-15 0 19.5058 -4.79554 20.5767 -2.2979 -0.4684 1.8313 -92.2023 72.3373 115.748 -5.2953 -2.84217e-14 0 20.8059 -0.164349 -7.80923 -3.0181 -1.42109e-14 0 7.44353 -1.87409 -23.1505 -9.3793 0.2991 2.5924 -0.483219 -1.4043 -4.46204 -4.3461 -8.88178e-16 0 11.3885 0.0663604 -2.10807 -2.1666 -1.77636e-15 0 35.2115 -1.89994 -5.61246 -9.4769 0.8376 0.2947 -5.74451 -0.492507 -10.345 -4.772 -4.88498e-15 1.42109e-14 99.6663 -15.9162 -13.533 -2.8722 3.55271e-15 0 64.977 -7.76867 -13.6635 -8.6586 1.0176 -1.7016 4.03539 -11.2401 -9.54019 -4.5461 -1.77636e-15 0 113.305 -9.33456 -6.15032 -2.506 -7.10543e-15 0 71.4335 -4.52061 -7.13531 -7.6901 0.6618 -3.9096 -3.28621 -26.7809 -8.5992 -3.2119 -7.10543e-15 -2.84217e-14 88.1866 -18.3453 -18.9248 -1.924 0 -1.42109e-14 68.3113 -11.8989 -18.9734 8.7379 -0.0029 0.0005 16.5409 -16.981 26.7424 0 -46.6676 0 2.97098 35.6469 13.913 0 -40.1476 0 -8.41927 -2.44793 7.7748 -8.88178e-16 -8.8846 14.2294 0.0001 -2.48481e-17 7.95139e-16 -8.7379 0.0029 -0.0005 -21.4025 -11.3227 -32.8143 0 -46.6676 0 -11.0515 44.501 1.57708 -3.55271e-15 -40.1476 1.77636e-15 11.5958 -17.3373 -2.88052 0 -8.8846 14.2294 0 1.98785e-16 -0 
0.00665638 89.6098 -0.0284611 -5.53542 -6.44833 -55.3135 0 7.2397 0 -0.0602078 5.42369 1.39526 0 16.546 0 0.67695 12.7144 2.56921 -1.77636e-15 34.2149 -3.55271e-15 -3.52053 32.9977 6.89639 0 6.2923 0 -8.75199 -26.7093 31.3435 4.0639 26.6115 -1.1234 -2.43625 4.36125 -21.4928 14.1772 2.84217e-14 0 -67.503 -14.4755 -14.9588 26.1234 7.10543e-15 0 -103.197 -2.58727 -90.0728 27.7188 0 0 -10.7372 -30.0369 -11.2237 2.2979 -0.4685 1.8313 37.184 70.9488 -65.3921 5.2953 0 7.10543e-15 -13.655 2.43915 4.2313 3.0181 7.10543e-15 0 40.575 -4.26209 10.4488 9.3793 0.2991 2.5924 -15.7189 8.2617 2.10857 4.3461 -1.42109e-14 0 -27.9756 -1.11868 5.59658 2.1666 -7.10543e-15 0 -30.2284 -1.57777 5.42758 9.4769 0.8376 0.2947 -15.5574 6.19104 1.80127 4.772 2.84217e-14 0 -44.2331 -4.15798 10.4286 2.8722 3.55271e-15 0 -38.4625 -3.11875 10.6456 8.6586 1.0176 -1.7016 -12.8095 4.05758 0.0154728 4.5461 0 0 -68.2419 -4.98724 7.35473 2.506 7.10543e-15 0 -26.184 0.226356 12.1003 7.6901 0.6618 -3.9096 -1.6959 -16.7036 -0.578543 3.2119 0 0 -48.2121 -6.75383 15.0249 1.924 1.33227e-15 0 -25.7169 -1.9246 10.2066 -4.0677 26.6109 -1.1234 -4.51796 5.67023 14.0479 -14.1772 -2.84217e-14 0 50.0367 33.3269 21.5011 -26.1234 7.10543e-15 0 29.0068 -9.97185 99.8178 -27.7188 3.55271e-15 0 19.6534 -4.58061 20.5257 -2.2979 -0.4684 1.8313 -92.2023 72.3373 115.748 -5.2953 0 0 20.8059 -0.164349 -7.80923 -3.0181 0 0 7.44353 -1.87409 -23.1505 -9.3793 0.2991 2.5924 -0.483219 -1.4043 -4.46204 -4.3461 2.66454e-15 0 11.3885 0.0663604 -2.10807 -2.1666 0 0 35.2115 -1.89994 -5.61246 -9.4769 0.8376 0.2947 -5.74451 -0.492507 -10.345 -4.772 -1.77636e-15 -1.42109e-14 99.6663 -15.9162 -13.533 -2.8722 0 0 64.977 -7.76867 -13.6635 -8.6586 1.0176 -1.7016 4.03539 -11.2401 -9.54019 -4.5461 3.55271e-15 0 113.305 -9.33456 -6.15032 -2.506 3.55271e-15 0 71.4335 -4.52061 -7.13531 -7.6901 0.6618 -3.9096 -3.28621 -26.7809 -8.5992 -3.2119 -7.10543e-15 1.42109e-14 88.1866 -18.3453 -18.9248 -1.924 0 0 68.3113 -11.8989 -18.9734 8.7379 -0.0029 0.0005 16.5419 -16.981 26.7424 0 -46.6676 -7.10543e-15 2.97207 35.6523 13.9117 0 -40.1476 -3.55271e-15 -8.41962 -2.44954 7.77468 0 -8.8846 14.2294 0.0001 0 -7.95139e-16 -8.7379 0.0029 -0.0005 -21.4035 -11.3226 -32.814 0 -46.6676 -7.10543e-15 -11.0538 44.5063 1.5794 -3.55271e-15 -40.1476 1.77636e-15 11.5959 -17.3393 -2.88033 3.55271e-15 -8.8846 14.2294 -2.75869e-33 -9.93923e-17 -1.59028e-15 
